<mxfile host="app.diagrams.net" modified="2022-09-22T04:08:55.965Z" agent="5.0 (Windows NT 10.0; Win64; x64) AppleWebKit/537.36 (KHTML, like Gecko) Chrome/104.0.5112.124 Safari/537.36" etag="jQo1A7CDAJdDLkQr5b50" version="20.3.3" type="github">
  <diagram id="mPtjW9Zs0Qi92GcqwXgW" name="Page-1">
    <mxGraphModel dx="924" dy="500" grid="1" gridSize="10" guides="1" tooltips="1" connect="1" arrows="1" fold="1" page="1" pageScale="1" pageWidth="850" pageHeight="1100" math="0" shadow="0">
      <root>
        <mxCell id="0" />
        <mxCell id="1" parent="0" />
        <mxCell id="4bYv0QaBRVCkqNXiSOBG-1" value="Quarterly Batch Job TWF" style="swimlane;" vertex="1" parent="1">
          <mxGeometry x="40" y="20" width="760" height="620" as="geometry" />
        </mxCell>
        <mxCell id="4bYv0QaBRVCkqNXiSOBG-2" value="Start" style="strokeWidth=2;html=1;shape=mxgraph.flowchart.start_1;whiteSpace=wrap;" vertex="1" parent="4bYv0QaBRVCkqNXiSOBG-1">
          <mxGeometry x="40" y="60" width="100" height="60" as="geometry" />
        </mxCell>
        <mxCell id="4bYv0QaBRVCkqNXiSOBG-4" value="Retrieve unique UEN or CompanyCode with LivePass" style="shape=process;whiteSpace=wrap;html=1;backgroundOutline=1;" vertex="1" parent="4bYv0QaBRVCkqNXiSOBG-1">
          <mxGeometry x="200" y="310" width="120" height="60" as="geometry" />
        </mxCell>
        <mxCell id="4bYv0QaBRVCkqNXiSOBG-5" value="TWFTemp" style="shape=datastore;whiteSpace=wrap;html=1;" vertex="1" parent="4bYv0QaBRVCkqNXiSOBG-1">
          <mxGeometry x="540" y="180" width="120" height="60" as="geometry" />
        </mxCell>
        <mxCell id="4bYv0QaBRVCkqNXiSOBG-9" value="" style="edgeStyle=orthogonalEdgeStyle;rounded=0;orthogonalLoop=1;jettySize=auto;html=1;endArrow=none;endFill=0;dashed=1;" edge="1" parent="4bYv0QaBRVCkqNXiSOBG-1" source="4bYv0QaBRVCkqNXiSOBG-6" target="4bYv0QaBRVCkqNXiSOBG-5">
          <mxGeometry relative="1" as="geometry" />
        </mxCell>
        <mxCell id="4bYv0QaBRVCkqNXiSOBG-11" value="" style="edgeStyle=orthogonalEdgeStyle;rounded=0;orthogonalLoop=1;jettySize=auto;html=1;endArrow=classic;endFill=1;" edge="1" parent="4bYv0QaBRVCkqNXiSOBG-1" source="4bYv0QaBRVCkqNXiSOBG-6" target="4bYv0QaBRVCkqNXiSOBG-10">
          <mxGeometry relative="1" as="geometry" />
        </mxCell>
        <mxCell id="4bYv0QaBRVCkqNXiSOBG-6" value="Check TWFTemp whether any Unprocessed record(s)" style="shape=process;whiteSpace=wrap;html=1;backgroundOutline=1;" vertex="1" parent="4bYv0QaBRVCkqNXiSOBG-1">
          <mxGeometry x="30" y="180" width="120" height="60" as="geometry" />
        </mxCell>
        <mxCell id="4bYv0QaBRVCkqNXiSOBG-12" value="No" style="edgeStyle=orthogonalEdgeStyle;rounded=0;orthogonalLoop=1;jettySize=auto;html=1;endArrow=classic;endFill=1;" edge="1" parent="4bYv0QaBRVCkqNXiSOBG-1" source="4bYv0QaBRVCkqNXiSOBG-10" target="4bYv0QaBRVCkqNXiSOBG-4">
          <mxGeometry relative="1" as="geometry" />
        </mxCell>
        <mxCell id="4bYv0QaBRVCkqNXiSOBG-10" value="Unprocess?" style="rhombus;whiteSpace=wrap;html=1;" vertex="1" parent="4bYv0QaBRVCkqNXiSOBG-1">
          <mxGeometry x="50" y="300" width="80" height="80" as="geometry" />
        </mxCell>
      </root>
    </mxGraphModel>
  </diagram>
</mxfile>
